<mxfile host="app.diagrams.net" modified="2022-04-06T13:18:00.135Z" agent="5.0 (Windows NT 10.0; Win64; x64) AppleWebKit/537.36 (KHTML, like Gecko) Chrome/99.0.4844.84 Safari/537.36" etag="cxvByzMTb6FJqlWp3oc0" version="17.2.5" type="github">
  <diagram id="FExUTwNNwDyyfn4sxqM5" name="Page-1">
    <mxGraphModel dx="1000" dy="1120" grid="1" gridSize="10" guides="1" tooltips="1" connect="1" arrows="1" fold="1" page="1" pageScale="1" pageWidth="850" pageHeight="1100" math="0" shadow="0">
      <root>
        <mxCell id="0" />
        <mxCell id="1" parent="0" />
        <mxCell id="PnR3FcP3WaYGH2_9Wonp-11" style="edgeStyle=orthogonalEdgeStyle;rounded=0;orthogonalLoop=1;jettySize=auto;html=1;exitX=1;exitY=0.5;exitDx=0;exitDy=0;entryX=0;entryY=0.5;entryDx=0;entryDy=0;" edge="1" parent="1" source="PnR3FcP3WaYGH2_9Wonp-1" target="PnR3FcP3WaYGH2_9Wonp-9">
          <mxGeometry relative="1" as="geometry" />
        </mxCell>
        <mxCell id="PnR3FcP3WaYGH2_9Wonp-1" value="OTP.jar" style="ellipse;whiteSpace=wrap;html=1;" vertex="1" parent="1">
          <mxGeometry x="50" y="580" width="120" height="80" as="geometry" />
        </mxCell>
        <mxCell id="PnR3FcP3WaYGH2_9Wonp-17" style="edgeStyle=orthogonalEdgeStyle;rounded=0;orthogonalLoop=1;jettySize=auto;html=1;exitX=0.5;exitY=1;exitDx=0;exitDy=0;exitPerimeter=0;entryX=0.5;entryY=0;entryDx=0;entryDy=0;" edge="1" parent="1" source="PnR3FcP3WaYGH2_9Wonp-2" target="PnR3FcP3WaYGH2_9Wonp-9">
          <mxGeometry relative="1" as="geometry" />
        </mxCell>
        <mxCell id="PnR3FcP3WaYGH2_9Wonp-2" value="graph_folder" style="shape=cylinder3;whiteSpace=wrap;html=1;boundedLbl=1;backgroundOutline=1;size=15;" vertex="1" parent="1">
          <mxGeometry x="190" y="400" width="80" height="120" as="geometry" />
        </mxCell>
        <mxCell id="PnR3FcP3WaYGH2_9Wonp-6" style="edgeStyle=orthogonalEdgeStyle;rounded=0;orthogonalLoop=1;jettySize=auto;html=1;exitX=0.5;exitY=1;exitDx=0;exitDy=0;entryX=0.145;entryY=0;entryDx=0;entryDy=4.35;entryPerimeter=0;" edge="1" parent="1" source="PnR3FcP3WaYGH2_9Wonp-3" target="PnR3FcP3WaYGH2_9Wonp-2">
          <mxGeometry relative="1" as="geometry" />
        </mxCell>
        <mxCell id="PnR3FcP3WaYGH2_9Wonp-3" value="GTFS Static" style="ellipse;whiteSpace=wrap;html=1;" vertex="1" parent="1">
          <mxGeometry x="30" y="250" width="120" height="80" as="geometry" />
        </mxCell>
        <mxCell id="PnR3FcP3WaYGH2_9Wonp-12" style="edgeStyle=orthogonalEdgeStyle;rounded=0;orthogonalLoop=1;jettySize=auto;html=1;exitX=0.5;exitY=1;exitDx=0;exitDy=0;entryX=0.5;entryY=0;entryDx=0;entryDy=0;entryPerimeter=0;" edge="1" parent="1" source="PnR3FcP3WaYGH2_9Wonp-5" target="PnR3FcP3WaYGH2_9Wonp-2">
          <mxGeometry relative="1" as="geometry" />
        </mxCell>
        <mxCell id="PnR3FcP3WaYGH2_9Wonp-5" value="OSM.pbf" style="ellipse;whiteSpace=wrap;html=1;" vertex="1" parent="1">
          <mxGeometry x="110" y="170" width="120" height="80" as="geometry" />
        </mxCell>
        <mxCell id="PnR3FcP3WaYGH2_9Wonp-32" value="Request code + GEOJSON" style="edgeStyle=orthogonalEdgeStyle;rounded=0;orthogonalLoop=1;jettySize=auto;html=1;exitX=0.5;exitY=1;exitDx=0;exitDy=0;entryX=0;entryY=0.5;entryDx=0;entryDy=0;" edge="1" parent="1" source="PnR3FcP3WaYGH2_9Wonp-9" target="PnR3FcP3WaYGH2_9Wonp-24">
          <mxGeometry relative="1" as="geometry">
            <Array as="points">
              <mxPoint x="263" y="690" />
            </Array>
          </mxGeometry>
        </mxCell>
        <mxCell id="PnR3FcP3WaYGH2_9Wonp-9" value="OTP server" style="rhombus;whiteSpace=wrap;html=1;" vertex="1" parent="1">
          <mxGeometry x="200" y="565" width="125" height="110" as="geometry" />
        </mxCell>
        <mxCell id="PnR3FcP3WaYGH2_9Wonp-15" style="edgeStyle=orthogonalEdgeStyle;rounded=0;orthogonalLoop=1;jettySize=auto;html=1;exitX=0;exitY=1;exitDx=0;exitDy=0;entryX=0.855;entryY=0;entryDx=0;entryDy=4.35;entryPerimeter=0;" edge="1" parent="1" source="PnR3FcP3WaYGH2_9Wonp-13" target="PnR3FcP3WaYGH2_9Wonp-2">
          <mxGeometry relative="1" as="geometry" />
        </mxCell>
        <mxCell id="PnR3FcP3WaYGH2_9Wonp-13" value="build-config.json" style="ellipse;whiteSpace=wrap;html=1;" vertex="1" parent="1">
          <mxGeometry x="250" y="170" width="120" height="80" as="geometry" />
        </mxCell>
        <mxCell id="PnR3FcP3WaYGH2_9Wonp-16" style="edgeStyle=orthogonalEdgeStyle;rounded=0;orthogonalLoop=1;jettySize=auto;html=1;exitX=0;exitY=1;exitDx=0;exitDy=0;entryX=1;entryY=0;entryDx=0;entryDy=15;entryPerimeter=0;" edge="1" parent="1" source="PnR3FcP3WaYGH2_9Wonp-14" target="PnR3FcP3WaYGH2_9Wonp-2">
          <mxGeometry relative="1" as="geometry" />
        </mxCell>
        <mxCell id="PnR3FcP3WaYGH2_9Wonp-14" value="router-config.json" style="ellipse;whiteSpace=wrap;html=1;" vertex="1" parent="1">
          <mxGeometry x="315" y="250" width="120" height="80" as="geometry" />
        </mxCell>
        <mxCell id="PnR3FcP3WaYGH2_9Wonp-25" style="edgeStyle=orthogonalEdgeStyle;rounded=0;orthogonalLoop=1;jettySize=auto;html=1;exitX=1;exitY=0.5;exitDx=0;exitDy=0;entryX=0.5;entryY=0;entryDx=0;entryDy=0;" edge="1" parent="1" source="PnR3FcP3WaYGH2_9Wonp-18" target="PnR3FcP3WaYGH2_9Wonp-21">
          <mxGeometry relative="1" as="geometry" />
        </mxCell>
        <mxCell id="PnR3FcP3WaYGH2_9Wonp-18" value="mymap.html" style="ellipse;whiteSpace=wrap;html=1;" vertex="1" parent="1">
          <mxGeometry x="480" y="420" width="120" height="80" as="geometry" />
        </mxCell>
        <mxCell id="PnR3FcP3WaYGH2_9Wonp-26" style="edgeStyle=orthogonalEdgeStyle;rounded=0;orthogonalLoop=1;jettySize=auto;html=1;exitX=0.5;exitY=1;exitDx=0;exitDy=0;entryX=1;entryY=0.5;entryDx=0;entryDy=0;" edge="1" parent="1" source="PnR3FcP3WaYGH2_9Wonp-21" target="PnR3FcP3WaYGH2_9Wonp-24">
          <mxGeometry relative="1" as="geometry" />
        </mxCell>
        <mxCell id="PnR3FcP3WaYGH2_9Wonp-21" value="javascript" style="ellipse;whiteSpace=wrap;html=1;" vertex="1" parent="1">
          <mxGeometry x="650" y="530" width="120" height="80" as="geometry" />
        </mxCell>
        <mxCell id="PnR3FcP3WaYGH2_9Wonp-23" value="User&amp;nbsp; coordinates" style="edgeStyle=orthogonalEdgeStyle;rounded=0;orthogonalLoop=1;jettySize=auto;html=1;exitX=0;exitY=1;exitDx=0;exitDy=0;exitPerimeter=0;entryX=0.5;entryY=0;entryDx=0;entryDy=0;" edge="1" parent="1" source="PnR3FcP3WaYGH2_9Wonp-22" target="PnR3FcP3WaYGH2_9Wonp-18">
          <mxGeometry relative="1" as="geometry" />
        </mxCell>
        <mxCell id="PnR3FcP3WaYGH2_9Wonp-22" value="Actor" style="shape=umlActor;verticalLabelPosition=bottom;verticalAlign=top;html=1;outlineConnect=0;" vertex="1" parent="1">
          <mxGeometry x="670" y="270" width="30" height="60" as="geometry" />
        </mxCell>
        <mxCell id="PnR3FcP3WaYGH2_9Wonp-31" value="Send Request to server" style="edgeStyle=orthogonalEdgeStyle;rounded=0;orthogonalLoop=1;jettySize=auto;html=1;exitX=0.5;exitY=0;exitDx=0;exitDy=0;entryX=1;entryY=0.5;entryDx=0;entryDy=0;" edge="1" parent="1" source="PnR3FcP3WaYGH2_9Wonp-24" target="PnR3FcP3WaYGH2_9Wonp-9">
          <mxGeometry relative="1" as="geometry" />
        </mxCell>
        <mxCell id="PnR3FcP3WaYGH2_9Wonp-33" value="Request 200 + GEOJSON" style="edgeStyle=orthogonalEdgeStyle;rounded=0;orthogonalLoop=1;jettySize=auto;html=1;exitX=0.5;exitY=1;exitDx=0;exitDy=0;entryX=0.5;entryY=0;entryDx=0;entryDy=0;" edge="1" parent="1" source="PnR3FcP3WaYGH2_9Wonp-24" target="PnR3FcP3WaYGH2_9Wonp-28">
          <mxGeometry relative="1" as="geometry" />
        </mxCell>
        <mxCell id="PnR3FcP3WaYGH2_9Wonp-34" style="edgeStyle=orthogonalEdgeStyle;rounded=0;orthogonalLoop=1;jettySize=auto;html=1;exitX=1;exitY=1;exitDx=0;exitDy=0;entryX=1;entryY=0;entryDx=0;entryDy=0;" edge="1" parent="1" source="PnR3FcP3WaYGH2_9Wonp-24" target="PnR3FcP3WaYGH2_9Wonp-18">
          <mxGeometry relative="1" as="geometry">
            <Array as="points">
              <mxPoint x="790" y="719" />
              <mxPoint x="790" y="431" />
            </Array>
          </mxGeometry>
        </mxCell>
        <mxCell id="PnR3FcP3WaYGH2_9Wonp-24" value="Flask Python" style="ellipse;whiteSpace=wrap;html=1;" vertex="1" parent="1">
          <mxGeometry x="480" y="650" width="120" height="80" as="geometry" />
        </mxCell>
        <mxCell id="PnR3FcP3WaYGH2_9Wonp-28" value="isochrone.html" style="ellipse;whiteSpace=wrap;html=1;" vertex="1" parent="1">
          <mxGeometry x="315" y="820" width="120" height="80" as="geometry" />
        </mxCell>
      </root>
    </mxGraphModel>
  </diagram>
</mxfile>
